<svg width="304" height="74" viewBox="0 0 304 74" fill="none" xmlns="http://www.w3.org/2000/svg">
<path d="M30.6493 44.9763L16.3657 49.6193C15.821 49.8218 15.3482 50.1805 15.0062 50.6503C14.6643 51.1202 14.4684 51.6804 14.4432 52.2609V72.4376C14.4211 72.6762 14.4614 72.9165 14.5603 73.1348C14.6591 73.3531 14.8131 73.542 15.007 73.6828C15.201 73.8236 15.4282 73.9115 15.6665 73.9378C15.9047 73.9642 16.1456 73.9281 16.3657 73.8332L35.5561 67.5975C36.0992 67.3939 36.5705 67.0352 36.9115 66.566C37.2524 66.0968 37.4479 65.5377 37.4738 64.9583V49.9354C37.4734 49.7131 37.3997 49.4971 37.2642 49.3209C37.1287 49.1446 36.9389 49.018 36.7241 48.9605C34.6824 48.4581 32.9188 47.1757 31.8117 45.3882C31.7199 45.2466 31.594 45.1305 31.4456 45.0503C31.2971 44.9702 31.1309 44.9287 30.9622 44.9297C30.857 44.9301 30.7524 44.9458 30.6517 44.9763H30.6493ZM45.5145 45.3882C44.4044 47.1754 42.6393 48.4575 40.5964 48.9605C40.382 49.0182 40.1926 49.145 40.0575 49.3212C39.9224 49.4975 39.8491 49.7134 39.8492 49.9354V49.9354V64.9583C39.8748 65.5377 40.0702 66.0967 40.411 66.5659C40.7518 67.0352 41.223 67.3939 41.766 67.5975L60.9573 73.8332C61.1768 73.9281 61.4173 73.9643 61.6551 73.9381C61.8929 73.912 62.1198 73.8244 62.3135 73.684C62.5072 73.5436 62.661 73.3553 62.7599 73.1374C62.8587 72.9196 62.8992 72.6798 62.8773 72.4416V52.2609C62.8518 51.6808 62.6561 51.121 62.3147 50.6513C61.9733 50.1816 61.5012 49.8227 60.9573 49.6193L46.6688 44.9763C46.5693 44.9456 46.4657 44.9298 46.3615 44.9297C46.1931 44.9292 46.0271 44.9709 45.8789 45.051C45.7307 45.1311 45.6049 45.247 45.5129 45.3882H45.5145ZM32.6072 41.1249C32.6064 42.3224 32.9608 43.4933 33.6256 44.4894C34.2903 45.4855 35.2356 46.2621 36.3418 46.7209C37.4479 47.1797 38.6653 47.3001 39.84 47.0669C41.0146 46.8337 42.0936 46.2574 42.9407 45.4108C43.7877 44.5642 44.3646 43.4855 44.5984 42.311C44.8322 41.1365 44.7125 39.919 44.2543 38.8126C43.7961 37.7062 43.02 36.7605 42.0243 36.0952C41.0285 35.4299 39.8578 35.0749 38.6603 35.0751C37.8656 35.0748 37.0786 35.2312 36.3444 35.5351C35.6101 35.839 34.9429 36.2846 34.3808 36.8463C33.8187 37.4081 33.3728 38.0751 33.0685 38.8092C32.7642 39.5433 32.6074 40.3302 32.6072 41.1249ZM20.5888 21.5355L1.39672 27.7728C1.16366 27.8253 0.948286 27.9375 0.771773 28.0985C0.595259 28.2595 0.463687 28.4636 0.389994 28.6909C0.316302 28.9181 0.303028 29.1606 0.351479 29.3946C0.39993 29.6285 0.508436 29.8458 0.666326 30.0251L12.5271 46.3543C12.8886 46.8083 13.3756 47.1461 13.9275 47.3256C14.4794 47.505 15.0719 47.5183 15.6313 47.3638L29.9173 42.7208C30.1283 42.6519 30.3107 42.5153 30.4362 42.3322C30.5617 42.1491 30.6234 41.9298 30.6115 41.7081C30.4566 39.6096 31.1307 37.534 32.489 35.9269C32.6292 35.7549 32.7084 35.5414 32.7144 35.3196C32.7204 35.0978 32.6527 34.8803 32.5219 34.701V34.701L23.6953 22.5466C23.4152 22.1937 23.0586 21.9089 22.6525 21.7138C22.2463 21.5187 21.8011 21.4184 21.3505 21.4205C21.0922 21.419 20.8352 21.4575 20.5888 21.5347V21.5355ZM53.6252 22.5458L44.7986 34.7002C44.668 34.8794 44.6003 35.0967 44.6058 35.3183C44.6113 35.54 44.6898 35.7536 44.8292 35.9261C46.1935 37.5286 46.8684 39.6057 46.7066 41.7041C46.6957 41.9261 46.7582 42.1456 46.8844 42.3286C47.0105 42.5116 47.1934 42.648 47.4048 42.7168V42.7168L61.6909 47.3598C62.2506 47.5148 62.8436 47.5018 63.396 47.3223C63.9484 47.1428 64.4358 46.8047 64.7974 46.3502L76.659 30.021C76.8162 29.8413 76.924 29.6239 76.972 29.39C77.0199 29.1561 77.0062 28.9138 76.9324 28.6868C76.8585 28.4597 76.7269 28.2558 76.5506 28.0948C76.3742 27.9339 76.1591 27.8216 75.9262 27.7687L56.7334 21.5355C56.4856 21.4578 56.2273 21.4188 55.9676 21.4197C55.5175 21.4187 55.0731 21.5195 54.6675 21.7145C54.2618 21.9095 53.9055 22.1937 53.6252 22.5458V22.5458ZM37.4746 1.56078L25.6138 17.8852C25.2932 18.3694 25.1222 18.9373 25.1222 19.5181C25.1222 20.0988 25.2932 20.6668 25.6138 21.151L34.4452 33.3038C34.5755 33.4831 34.7613 33.6143 34.9739 33.677C35.1864 33.7397 35.4138 33.7304 35.6205 33.6505C37.5685 32.8568 39.7497 32.8568 41.6977 33.6505C41.905 33.7304 42.1329 33.7398 42.3461 33.6771C42.5593 33.6144 42.7458 33.4832 42.8769 33.3038L51.7067 21.1502C52.0274 20.666 52.1983 20.098 52.1983 19.5173C52.1983 18.9365 52.0274 18.3686 51.7067 17.8843L39.8467 1.56078C39.725 1.35448 39.5516 1.18349 39.3436 1.0647C39.1356 0.945911 38.9002 0.88343 38.6607 0.88343C38.4211 0.88343 38.1857 0.945911 37.9777 1.0647C37.7697 1.18349 37.5963 1.35448 37.4746 1.56078" fill="#E84895"/>
<path d="M121.4 22.8102C121.692 23.0892 121.922 23.4272 122.073 23.8017C122.225 24.1762 122.295 24.5788 122.28 24.9825C122.297 25.3827 122.228 25.7819 122.076 26.1525C121.924 26.5232 121.693 26.8564 121.4 27.1291C120.773 27.6788 119.958 27.9657 119.124 27.9301H111.003V55.03C111.011 55.4537 110.928 55.8742 110.758 56.2626C110.589 56.651 110.337 56.9981 110.021 57.28C109.358 57.8861 108.486 58.2108 107.589 58.1853C107.152 58.2011 106.717 58.1291 106.308 57.9736C105.899 57.8181 105.526 57.5822 105.21 57.28C104.907 56.9905 104.667 56.6408 104.507 56.2533C104.347 55.8659 104.269 55.4492 104.279 55.03V27.9301H96.1577C95.3196 27.965 94.5016 27.668 93.8812 27.1035C93.5886 26.8245 93.3589 26.4864 93.2074 26.1117C93.0558 25.737 92.9859 25.3342 93.0023 24.9304C92.9904 24.5325 93.0652 24.1367 93.2215 23.7706C93.3778 23.4045 93.612 23.0768 93.9077 22.8102C94.5225 22.2539 95.3289 21.9574 96.1577 21.9827H119.122C119.96 21.9478 120.779 22.2452 121.4 22.8102V22.8102Z" fill="#555555"/>
<path d="M127.399 26.5863C127.132 26.3278 126.928 26.0114 126.803 25.6617C126.677 25.3119 126.634 24.938 126.675 24.5687V23.5865C126.633 23.2126 126.682 22.8341 126.817 22.4829C126.952 22.1318 127.17 21.8183 127.452 21.569C128.235 21.1944 129.092 21 129.96 21C130.828 21 131.685 21.1944 132.468 21.569C132.735 21.8277 132.939 22.144 133.064 22.4937C133.19 22.8434 133.233 23.2172 133.192 23.5865V24.5687C133.239 24.9444 133.195 25.3258 133.065 25.6812C132.934 26.0365 132.721 26.3556 132.442 26.6119C131.66 27.042 130.767 27.2309 129.878 27.1548C129.012 27.2324 128.144 27.0334 127.399 26.5863V26.5863ZM132.158 57.2809C131.563 57.8605 130.765 58.1849 129.935 58.1849C129.105 58.1849 128.307 57.8605 127.712 57.2809C127.422 56.9839 127.195 56.6317 127.044 56.2452C126.893 55.8587 126.821 55.4457 126.833 55.0308V33.6715C126.821 33.2567 126.893 32.8437 127.044 32.4572C127.195 32.0707 127.422 31.7185 127.712 31.4215C128.307 30.8419 129.105 30.5175 129.935 30.5175C130.765 30.5175 131.563 30.8419 132.158 31.4215C132.447 31.7187 132.674 32.071 132.825 32.4575C132.976 32.8439 133.049 33.2567 133.037 33.6715V55.0308C133.049 55.4456 132.977 55.8585 132.826 56.245C132.674 56.6314 132.447 56.9837 132.158 57.2809V57.2809Z" fill="#555555"/>
<path d="M178.397 33.1321C179.708 35.2192 180.363 38.107 180.363 41.7955V55.0308C180.374 55.4456 180.303 55.8584 180.152 56.2449C180.001 56.6314 179.774 56.9837 179.484 57.2809C178.889 57.8605 178.092 58.1849 177.261 58.1849C176.431 58.1849 175.633 57.8605 175.039 57.2809C174.749 56.9839 174.522 56.6317 174.37 56.2452C174.219 55.8587 174.147 55.4457 174.159 55.0308V41.7912C174.245 40.2224 173.858 38.6638 173.048 37.3176C172.307 36.2308 171.005 35.6876 169.142 35.6882C168.308 35.6409 167.473 35.7709 166.693 36.0696C165.913 36.3683 165.205 36.8289 164.616 37.4211C163.519 38.6063 162.933 40.1768 162.987 41.7912V55.0308C162.999 55.4456 162.927 55.8583 162.776 56.2448C162.625 56.6312 162.398 56.9835 162.109 57.2809C161.514 57.8605 160.716 58.1849 159.886 58.1849C159.055 58.1849 158.258 57.8605 157.663 57.2809C157.373 56.984 157.146 56.6318 156.994 56.2453C156.843 55.8587 156.771 55.4457 156.783 55.0308V41.7912C156.869 40.2223 156.482 38.6637 155.671 37.3176C154.93 36.2308 153.629 35.6876 151.767 35.6882C150.933 35.6409 150.099 35.7708 149.318 36.0695C148.538 36.3682 147.83 36.8288 147.241 37.4211C146.144 38.6063 145.558 40.1767 145.612 41.7912V55.0308C145.623 55.4456 145.551 55.8584 145.4 56.2449C145.25 56.6314 145.023 56.9837 144.733 57.2809C144.138 57.8603 143.341 58.1846 142.51 58.1846C141.68 58.1846 140.882 57.8603 140.288 57.2809C139.998 56.9838 139.771 56.6315 139.62 56.245C139.469 55.8585 139.397 55.4456 139.409 55.0308V33.6715C139.397 33.2568 139.469 32.8439 139.62 32.4574C139.771 32.0709 139.998 31.7187 140.288 31.4215C140.882 30.8421 141.68 30.5178 142.51 30.5178C143.341 30.5178 144.138 30.8421 144.733 31.4215C145.023 31.7188 145.249 32.0711 145.4 32.4575C145.551 32.844 145.623 33.2568 145.612 33.6715V34.4999C146.581 33.2248 147.783 32.1454 149.155 31.3189C150.594 30.4371 152.254 29.9799 153.942 29.9998C158.286 29.9998 161.062 31.8962 162.269 35.6891C163.162 34.1295 164.388 32.7866 165.86 31.7566C167.439 30.5926 169.355 29.9752 171.317 29.9981C174.726 29.9987 177.086 31.0433 178.397 33.1321Z" fill="#555555"/>
<path d="M210.93 45.722C210.323 46.2343 209.552 46.5099 208.758 46.4982H191.689C192.017 48.3882 193.029 50.0912 194.534 51.2813C195.958 52.4167 197.729 53.0284 199.551 53.0142C200.667 53.0521 201.783 52.9212 202.861 52.626C203.521 52.4273 204.155 52.1494 204.749 51.7985C205.214 51.5061 205.532 51.307 205.706 51.2001C206.248 50.9106 206.85 50.7514 207.465 50.735C207.811 50.7304 208.156 50.7969 208.476 50.9304C208.796 51.0639 209.086 51.2616 209.326 51.5113C209.572 51.744 209.768 52.0246 209.902 52.3359C210.035 52.6472 210.103 52.9824 210.102 53.3211C210.077 53.8275 209.933 54.3208 209.681 54.761C209.43 55.2013 209.078 55.5761 208.655 55.8549C207.492 56.753 206.178 57.4362 204.775 57.8725C202.734 58.5555 200.575 58.8204 198.429 58.6515C196.283 58.4826 194.193 57.8833 192.283 56.8894C190.179 55.734 188.448 54.0027 187.293 51.8985C186.101 49.7019 185.495 47.2347 185.534 44.7355C185.475 42.0156 186.116 39.3262 187.397 36.9261C188.534 34.7941 190.233 33.0144 192.31 31.7806C194.281 30.6079 196.533 29.9911 198.827 29.9956C201.106 29.9964 203.339 30.6419 205.267 31.8575C207.277 33.0932 208.941 34.8197 210.102 36.8748C211.301 38.9489 211.926 41.3052 211.912 43.7011C211.906 44.0892 211.815 44.4713 211.645 44.8204C211.476 45.1696 211.232 45.4773 210.93 45.722V45.722ZM191.741 41.3262H205.292V40.9637C205.214 40.2304 204.986 39.5212 204.621 38.8804C204.256 38.2395 203.763 37.681 203.172 37.2398C201.952 36.2257 200.413 35.6761 198.827 35.6882C194.827 35.6882 192.465 37.5675 191.741 41.3262V41.3262Z" fill="#555555"/>
<path d="M239.816 52.9885C240.114 53.2698 240.349 53.6115 240.506 53.9908C240.662 54.37 240.735 54.7782 240.721 55.1881C240.731 55.5897 240.656 55.9889 240.5 56.359C240.344 56.7291 240.111 57.0618 239.816 57.3348C239.208 57.9057 238.399 58.2131 237.566 58.1896H220.756C220.34 58.1981 219.925 58.1223 219.539 57.9667C219.152 57.8112 218.801 57.5791 218.506 57.2843C218.212 56.9896 217.98 56.6383 217.824 56.2517C217.669 55.865 217.593 55.4509 217.602 55.0343V25.1381C217.591 24.7189 217.669 24.3022 217.829 23.9147C217.99 23.5272 218.229 23.1775 218.533 22.888C218.849 22.5859 219.222 22.3501 219.631 22.1946C220.039 22.0391 220.475 21.967 220.912 21.9827C221.324 21.9773 221.733 22.0547 222.115 22.2102C222.497 22.3657 222.843 22.5962 223.135 22.888C223.438 23.1776 223.677 23.5273 223.838 23.9148C223.998 24.3022 224.076 24.7189 224.065 25.1381V52.1353H237.565C238.399 52.1108 239.208 52.4176 239.816 52.9885V52.9885Z" fill="#555555"/>
<path d="M270.875 51.7985C269.684 53.938 267.919 55.7023 265.78 56.8928C263.593 58.081 261.144 58.7035 258.655 58.7035C256.166 58.7035 253.717 58.081 251.53 56.8928C249.402 55.6961 247.648 53.9327 246.462 51.7985C245.2 49.5312 244.558 46.9716 244.6 44.3773C244.558 41.7827 245.2 39.2229 246.462 36.9552C247.652 34.8179 249.405 33.0473 251.53 31.8353C253.712 30.6307 256.163 29.9989 258.655 29.9989C261.147 29.9989 263.598 30.6307 265.78 31.8353C267.916 33.0411 269.679 34.8126 270.875 36.9552C272.136 39.2229 272.778 41.7827 272.737 44.3773C272.778 46.9716 272.136 49.5312 270.875 51.7985V51.7985ZM265.47 39.8515C264.82 38.5858 263.836 37.5217 262.625 36.7739C261.428 36.0632 260.061 35.6882 258.668 35.6882C257.276 35.6882 255.909 36.0632 254.711 36.7739C253.5 37.5213 252.517 38.5855 251.867 39.8515C251.143 41.2487 250.779 42.804 250.806 44.3773C250.776 45.9423 251.141 47.4897 251.867 48.8765C252.522 50.132 253.505 51.1867 254.711 51.9285C255.909 52.6392 257.276 53.0142 258.668 53.0142C260.061 53.0142 261.428 52.6392 262.625 51.9285C263.831 51.1862 264.814 50.1317 265.47 48.8765C266.195 47.4894 266.56 45.9422 266.53 44.3773C266.557 42.8041 266.193 41.2489 265.47 39.8515V39.8515Z" fill="#555555"/>
<path d="M303.045 30.8786C303.339 31.1781 303.568 31.5344 303.719 31.9257C303.871 32.317 303.94 32.7351 303.924 33.1543V56.1695C303.924 60.375 302.623 63.4865 300.019 65.504C297.155 67.6043 293.663 68.6709 290.115 68.5294C288.68 68.4844 287.252 68.3128 285.848 68.0165C284.53 67.8084 283.239 67.4617 281.994 66.9821C280.304 66.2572 279.46 65.2569 279.46 63.9815C279.468 63.6992 279.52 63.4199 279.615 63.1539C279.771 62.4766 280.143 61.8686 280.676 61.4219C281.132 61.0403 281.706 60.8287 282.3 60.8235C282.634 60.8217 282.966 60.874 283.283 60.9782C283.421 61.013 284.276 61.3322 285.848 61.9357C287.203 62.4949 288.649 62.8017 290.115 62.841C292.666 62.841 294.571 62.3324 295.83 61.3151C296.46 60.7928 296.959 60.13 297.287 59.38C297.614 58.63 297.762 57.8135 297.717 56.9962V54.517C296.798 55.7239 295.624 56.7129 294.278 57.4134C292.772 58.267 291.07 58.7126 289.339 58.706C287.012 58.7307 284.725 58.0939 282.745 56.8697C280.748 55.6314 279.129 53.8695 278.063 51.7754C276.897 49.4872 276.31 46.9478 276.354 44.3798C276.311 41.8067 276.888 39.2611 278.035 36.9577C279.072 34.8617 280.664 33.0906 282.639 31.8378C284.581 30.6154 286.835 29.9779 289.13 30.0015C290.829 29.9886 292.509 30.3601 294.044 31.0881C295.429 31.7167 296.677 32.613 297.715 33.7254V33.1569C297.703 32.7421 297.775 32.3292 297.926 31.9427C298.077 31.5562 298.304 31.2039 298.594 30.9068C298.881 30.6096 299.227 30.3756 299.61 30.2197C299.993 30.0638 300.404 29.9895 300.817 30.0015C301.229 29.9878 301.639 30.0585 302.022 30.2094C302.405 30.3603 302.753 30.588 303.045 30.8786V30.8786ZM295.778 50.5581C297.269 48.8515 298.055 46.6418 297.976 44.3773C298.052 42.1054 297.267 39.8888 295.778 38.1708C295.077 37.364 294.205 36.723 293.225 36.2943C292.246 35.8655 291.183 35.6597 290.115 35.6916C289.049 35.6574 287.989 35.8623 287.012 36.2913C286.036 36.7203 285.168 37.3625 284.472 38.1708C282.999 39.8958 282.224 42.1098 282.3 44.3773C282.221 46.6374 282.997 48.8445 284.472 50.5581C285.172 51.3604 286.041 51.997 287.017 52.4218C287.993 52.8466 289.051 53.0489 290.115 53.0141C291.181 53.0466 292.242 52.8433 293.221 52.4188C294.2 51.9942 295.073 51.3589 295.778 50.5581V50.5581Z" fill="#555555"/>
</svg>
